<?xml version="1.0" standalone="no"?>
<!DOCTYPE svg PUBLIC "-//W3C//DTD SVG 20010904//EN"
 "http://www.w3.org/TR/2001/REC-SVG-20010904/DTD/svg10.dtd">
<svg version="1.0" xmlns="http://www.w3.org/2000/svg"
 width="513.000000pt" height="450.000000pt" viewBox="0 0 513.000000 450.000000"
 preserveAspectRatio="xMidYMid meet">

<g transform="translate(0.000000,450.000000) scale(0.100000,-0.100000)"
fill="#000000" stroke="none">
<path d="M2820 4004 c-25 -11 -71 -16 -155 -17 -105 -2 -126 -5 -170 -26 -144
-71 -243 -255 -292 -541 -18 -104 -24 -490 -10 -612 l8 -68 -717 0 -716 0 -34
-34 -34 -34 0 -587 0 -587 34 -34 34 -34 244 0 245 0 17 128 c9 70 26 198 38
285 l21 157 117 0 117 0 7 -62 c3 -35 18 -163 33 -285 l26 -223 309 0 308 0 0
-24 c0 -13 -9 -68 -20 -121 -11 -53 -20 -99 -20 -101 0 -2 -92 -4 -205 -4
l-205 0 0 38 0 38 -370 0 -370 0 0 -38 0 -38 -505 0 -506 0 -24 -25 c-32 -31
-32 -59 0 -90 l24 -25 2520 0 2520 0 20 26 c27 35 26 59 -4 89 l-24 25 -875 0
-876 0 -5 23 c-6 23 -13 25 -175 42 -93 10 -181 14 -197 11 -15 -4 -50 -22
-78 -39 -46 -30 -56 -32 -135 -32 -92 0 -124 12 -173 60 -21 21 -27 37 -27 69
0 37 6 46 60 97 131 123 203 136 314 58 l61 -44 105 0 c58 1 130 4 161 8 l57
8 5 232 c6 231 12 297 27 297 17 0 103 -143 137 -227 20 -47 43 -123 52 -168
15 -75 18 -81 36 -74 33 13 216 10 278 -5 l58 -14 -7 32 c-12 57 -146 429
-211 586 -106 254 -165 361 -243 433 -36 34 -94 78 -129 99 l-62 36 44 30 c61
42 153 144 182 203 30 59 31 100 5 231 -44 215 -144 464 -255 634 -133 204
-277 290 -395 238z m-184 -339 c35 -127 89 -220 148 -256 53 -32 58 -21 17 34
-46 61 -91 152 -91 185 0 19 16 7 93 -70 103 -104 199 -173 264 -191 52 -14
54 -23 19 -158 -28 -110 -73 -214 -116 -269 -29 -36 -30 -42 -30 -134 l0 -96
74 0 c41 0 77 -4 80 -9 9 -13 -23 -110 -57 -174 -59 -113 -141 -171 -237 -171
-112 1 -210 84 -286 240 -25 51 -43 98 -39 104 3 5 31 10 61 10 l54 0 0 89 0
89 -50 37 c-111 81 -183 217 -184 345 0 88 17 128 68 160 55 33 123 116 145
176 16 41 21 80 22 157 l1 102 14 -70 c7 -38 21 -97 30 -130z"/>
</g>
</svg>
